<svg xmlns="http://www.w3.org/2000/svg" width="960" height="540" viewBox="0 0 960 540" role="img" aria-label="Home Assistant device page example">
  <rect width="960" height="540" fill="#f4f7f9"/>
  <rect x="0" y="0" width="960" height="72" fill="#03a9f4"/>
  <text x="36" y="46" fill="#ffffff" font-family="Arial, sans-serif" font-size="26" font-weight="700">Home Assistant</text>
  <text x="54" y="128" fill="#263238" font-family="Arial, sans-serif" font-size="32" font-weight="700">TigerOS ESP32-S3</text>
  <text x="56" y="162" fill="#607d8b" font-family="Arial, sans-serif" font-size="17">MQTT device discovered automatically</text>
  <rect x="54" y="196" width="260" height="96" rx="8" fill="#ffffff" stroke="#d7e1e7"/>
  <text x="78" y="232" fill="#607d8b" font-family="Arial, sans-serif" font-size="16">RSSI</text>
  <text x="78" y="268" fill="#263238" font-family="Arial, sans-serif" font-size="30" font-weight="700">-45 dBm</text>
  <rect x="350" y="196" width="260" height="96" rx="8" fill="#ffffff" stroke="#d7e1e7"/>
  <text x="374" y="232" fill="#607d8b" font-family="Arial, sans-serif" font-size="16">Free Heap</text>
  <text x="374" y="268" fill="#263238" font-family="Arial, sans-serif" font-size="30" font-weight="700">270 KB</text>
  <rect x="646" y="196" width="260" height="96" rx="8" fill="#ffffff" stroke="#d7e1e7"/>
  <text x="670" y="232" fill="#607d8b" font-family="Arial, sans-serif" font-size="16">Uptime</text>
  <text x="670" y="268" fill="#263238" font-family="Arial, sans-serif" font-size="30" font-weight="700">1,284 s</text>
  <rect x="54" y="330" width="260" height="96" rx="8" fill="#ffffff" stroke="#d7e1e7"/>
  <text x="78" y="366" fill="#607d8b" font-family="Arial, sans-serif" font-size="16">Firmware Version</text>
  <text x="78" y="402" fill="#263238" font-family="Arial, sans-serif" font-size="30" font-weight="700">0.7.0</text>
  <rect x="350" y="330" width="260" height="96" rx="8" fill="#ffffff" stroke="#d7e1e7"/>
  <text x="374" y="366" fill="#607d8b" font-family="Arial, sans-serif" font-size="16">Restart Device</text>
  <rect x="374" y="382" width="150" height="34" rx="17" fill="#03a9f4"/>
  <text x="413" y="405" fill="#ffffff" font-family="Arial, sans-serif" font-size="16" font-weight="700">Press</text>
  <rect x="646" y="330" width="260" height="96" rx="8" fill="#ffffff" stroke="#d7e1e7"/>
  <text x="670" y="366" fill="#607d8b" font-family="Arial, sans-serif" font-size="16">TigerOS LED</text>
  <rect x="670" y="382" width="72" height="34" rx="17" fill="#4caf50"/>
  <circle cx="725" cy="399" r="14" fill="#ffffff"/>
</svg>
